<svg width="32" height="32" viewBox="0 0 32 32" fill="none" xmlns="http://www.w3.org/2000/svg">
  <!-- Background circle -->
  <circle cx="16" cy="16" r="16" fill="#1f2937"/>
  
  <!-- Umami "U" letter -->
  <path d="M8 8h4v16h-4V8zm8 0c4.4 0 8 3.6 8 8s-3.6 8-8 8-8-3.6-8-8 3.6-8 8-8zm0 4c-2.2 0-4 1.8-4 4s1.8 4 4 4 4-1.8 4-4-1.8-4-4-4z" fill="#3b82f6"/>
  
  <!-- Analytics dots -->
  <circle cx="12" cy="12" r="1.5" fill="#10b981"/>
  <circle cx="20" cy="12" r="1.5" fill="#10b981"/>
  <circle cx="12" cy="20" r="1.5" fill="#10b981"/>
  <circle cx="20" cy="20" r="1.5" fill="#10b981"/>
</svg>
